<svg xmlns="http://www.w3.org/2000/svg" viewBox="0 0 32 32" width="32" height="32">
	<style>
		tspan { white-space:pre }
		.shp0 { fill: #fff } 
		.shp1 { fill: #000 } 
	</style>
	<path id="Layer" class="shp0" d="M10.45 29.55L10.91 7L28.06 21.65L17.68 22.08L10.45 29.55Z" />
	<g id="Layer">
		<path id="Layer" fill-rule="evenodd" class="shp1" d="M28.9 21.94C28.78 22.29 28.46 22.52 28.09 22.54L18.07 22.96L17.27 23.78L20.01 29.87L21.94 29L20.5 25.79C20.3 25.34 20.5 24.81 20.95 24.61C21.4 24.41 21.92 24.61 22.12 25.06L23.93 29.09C24.03 29.3 24.04 29.55 23.95 29.77C23.87 29.99 23.7 30.17 23.48 30.26L19.92 31.86C19.81 31.91 19.68 31.94 19.56 31.94C19.22 31.94 18.9 31.74 18.75 31.41L15.94 25.16L11.09 30.17C10.92 30.35 10.69 30.44 10.45 30.44C10.34 30.44 10.22 30.42 10.11 30.37C9.77 30.23 9.55 29.9 9.56 29.53L10.02 6.98C10.02 6.64 10.23 6.33 10.54 6.19C10.86 6.05 11.22 6.1 11.48 6.32L28.63 20.97C28.91 21.21 29.02 21.59 28.9 21.94ZM25.76 20.86L11.76 8.9L11.39 27.31L16.62 21.9L13.8 15.61C13.59 15.16 13.8 14.64 14.24 14.43C14.69 14.23 15.22 14.43 15.42 14.88L18.24 21.17L25.76 20.86Z" />
		<path id="Layer" class="shp1" d="M9.46 4.6C9.12 4.6 8.8 4.41 8.65 4.08L7.47 1.43C7.27 0.98 7.47 0.46 7.92 0.26C8.36 0.06 8.89 0.26 9.09 0.71L10.27 3.35C10.48 3.8 10.27 4.32 9.83 4.53C9.71 4.58 9.58 4.6 9.46 4.6Z" />
		<path id="Layer" class="shp1" d="M6.59 7.64C6.48 7.64 6.37 7.63 6.27 7.59L3.56 6.55C3.1 6.38 2.87 5.86 3.05 5.4C3.23 4.95 3.74 4.71 4.2 4.89L6.9 5.92C7.36 6.1 7.59 6.61 7.42 7.07C7.28 7.43 6.95 7.64 6.59 7.64Z" />
		<path id="Layer" class="shp1" d="M16.69 7.36C16.35 7.36 16.02 7.17 15.88 6.83C15.67 6.39 15.88 5.86 16.32 5.66L18.97 4.48C19.42 4.28 19.94 4.48 20.14 4.93C20.34 5.37 20.14 5.9 19.7 6.1L17.05 7.28C16.93 7.34 16.81 7.36 16.69 7.36Z" />
		<path id="Layer" class="shp1" d="M4.06 13.01C3.72 13.01 3.4 12.82 3.25 12.48C3.05 12.04 3.25 11.51 3.7 11.31L6.34 10.13C6.79 9.93 7.32 10.13 7.52 10.57C7.72 11.02 7.52 11.55 7.07 11.75L4.42 12.93C4.31 12.99 4.18 13.01 4.06 13.01Z" />
		<path id="Layer" class="shp1" d="M13.65 4.49C13.54 4.49 13.43 4.47 13.33 4.43C12.87 4.25 12.64 3.74 12.82 3.28L13.85 0.57C14.02 0.11 14.54 -0.12 15 0.06C15.46 0.23 15.69 0.75 15.51 1.21L14.48 3.91C14.34 4.27 14 4.49 13.65 4.49Z" />
	</g>
	<g id="Layer">
	</g>
	<g id="Layer">
	</g>
	<g id="Layer">
	</g>
	<g id="Layer">
	</g>
	<g id="Layer">
	</g>
	<g id="Layer">
	</g>
	<g id="Layer">
	</g>
	<g id="Layer">
	</g>
	<g id="Layer">
	</g>
	<g id="Layer">
	</g>
	<g id="Layer">
	</g>
	<g id="Layer">
	</g>
	<g id="Layer">
	</g>
	<g id="Layer">
	</g>
	<g id="Layer">
	</g>
</svg>